<svg xmlns="http://www.w3.org/2000/svg" width="200" height="200" viewBox="0 0 200 200" fill="none">
  <path d="M155 40H45C41.6863 40 39 42.6863 39 46V166C39 169.314 41.6863 172 45 172H155C158.314 172 161 169.314 161 166V46C161 42.6863 158.314 40 155 40Z" fill="#E6E9F0"/>
  <path d="M150 35H50C46.6863 35 44 37.6863 44 41V161C44 164.314 46.6863 167 50 167H150C153.314 167 156 164.314 156 161V41C156 37.6863 153.314 35 150 35Z" fill="#F8F9FC"/>
  <path d="M132 50H67C64.7909 50 63 51.7909 63 54V58C63 60.2091 64.7909 62 67 62H132C134.209 62 136 60.2091 136 58V54C136 51.7909 134.209 50 132 50Z" fill="#E6E9F0"/>
  <path d="M132 75H67C64.7909 75 63 76.7909 63 79V83C63 85.2091 64.7909 87 67 87H132C134.209 87 136 85.2091 136 83V79C136 76.7909 134.209 75 132 75Z" fill="#E6E9F0"/>
  <path d="M132 100H67C64.7909 100 63 101.791 63 104V108C63 110.209 64.7909 112 67 112H132C134.209 112 136 110.209 136 108V104C136 101.791 134.209 100 132 100Z" fill="#E6E9F0"/>
  <path d="M108 125H67C64.7909 125 63 126.791 63 129V133C63 135.209 64.7909 137 67 137H108C110.209 137 112 135.209 112 133V129C112 126.791 110.209 125 108 125Z" fill="#E6E9F0"/>
  <path d="M144.5 78L154.5 88M154.5 88L164.5 78M154.5 88V58" stroke="#1e88e5" stroke-width="4" stroke-linecap="round" stroke-linejoin="round"/>
  <circle cx="154.5" cy="113" r="25" fill="#ebf5ff" stroke="#1e88e5" stroke-width="2"/>
  <path d="M154.5 150C167.479 150 178 139.479 178 126.5C178 113.521 167.479 103 154.5 103" stroke="#1e88e5" stroke-width="4" stroke-linecap="round"/>
</svg> 